<svg xmlns="http://www.w3.org/2000/svg" width="250" height="250"><defs><clipPath id="a"><path d="M4.848 0h240.3v249.996H4.848Zm0 0"/></clipPath><clipPath id="b"><path d="M1.637 91.664h246.726v66.664H1.637Zm0 0"/></clipPath><clipPath id="c"><path d="M0 165.23h250v60.028H0Zm0 0"/></clipPath></defs><g clip-path="url(#a)"><path d="M201.098 56.09c.007 1.543-.743 1.16-1.032 1.418-1.32 1.168-2.504 3.113-3.812 4.222-2.5 2.118-4.82 5.301-7.324 7.415-1.856 1.566-3.61 3.992-5.489 5.511-.629.504-1.129 1.633-1.867 1.742-.64.098-1 1.645-.89 3.504-.23-.101-.375.164-.422.715-.008.094.101.375.14.356.215-.125.32-.493.282-1.07 2.316.093 4.57-2.141 6.91-1.212.926-2.058 2.246-.27 3.21-2.156.204-.398.594-.234.9-.246.788-.031 1.75.711 2.327-.184.82-1.27 1.38.258 2.012.356 1.203.187 2.164-1.719 3.363-1.527 1.102.171 2.332 1.218 3.371-1.028.137-.297.457-.027.696-.047 1.136-.078 2.273.356 3.379-1.105.472-.629 1.16-.234 1.64.887.375-1.559 1-1.11 1.496-.922 1.114.422 1.992-1.824 3.13-1.356 1 .414 2.05.188 3.073.028.332-.051.649-.793.918-1.145.551-.074.72 1.95 1.297 1.203 1.61-2.082 3.336-.996 5.016-1.16.5-.047.879-.418 1.25-1.668.766 2.094 1.715 1.484 2.621 1.652.715.137 1.137-1.812 1.945-1.34.621.364 1.38.672 1.961-1.023.121-.347.692-.246 1.086.317 1.078 1.515 2.184 1.43 3.285-.434.52-.281.762 1.875 1.403 1.27.52-.493.933.628 1.402.953l.203-2.02c1.902 2.281 3.777 4.55 5.606 7.836v3.473l.824 2.097c.508 2.914-.512 5-.367 7.403l-1.633 4.37c-1.606.192-2.899-1.73-4.29-3.32l-1.09 1.313c-.273.91.165 2.363-.3 3.2-.422-.438-.062-1.954-.566-2.333l-.305 2.188-.648-.848c-.575 2.328.496 2.293.55 3.332.594.254.711-.687.957-1.105.454 1.367 1.18 1.488 1.72 2.453.503-1.473 1.218.117 1.737-.89.5 1.78 1.364.077 1.918 1.265.38 1.914-.996 2.86-.07 5.367-1.246-.125-2.008.95-2.539 2.937-1.707-1.453-3.312-2.714-4.918-.285-.867-1.844-2.074-1.91-2.836-.96-.742.921-1.371-.403-1.902.48-.766 1.277-1.25-.29-1.867-.672-.45-.277-1.047-.504-1.399.027-1.242 1.864-2.57.762-3.847 1.145-.891.27-1.883-.95-2.66 1.16-.075.2-.352.191-.454 0-1.222-2.242-2.426-.234-3.644-.027-1.336.23-2.743-.582-4.012.195-2.156 1.32-4.352.23-6.434 1.281-1.699.856-3.402.23-5.02 1.14-1.843 1.04-3.722.294-5.484 1.27-1.542.848-3.156-.031-4.527 1.223-1.492 1.363-2.96.059-4.324 1.094-1.602 1.21-3.23.472-4.781 1.265-1.29.66-2.688.465-3.828 2.371l-.688-1.617c-.894 2.86-2.32.418-3.371 2.098-.383.61-.723.601-1.094.578-2.355-.156-4.703.637-6.96 2.355-.653.493-1.415.192-2.122.051-1.625-.32-3.152.637-4.64 2.078-.918.887-2.02-.507-2.829 1.567-1.796-.883-3.496.957-5.246 1.324-1.843.387-3.66 1.652-5.472 2.723-.25.144-.477.746-.813.82-.816.176-1.613-.492-2.457 1.004-.59 1.043-1.676-.516-2.363 1.367-2.055-1.215-3.762 2.95-5.77 2.399-.511-.141-.718 1.175-1.21 1.394-.376.164-.731 1.121-1.239 1.059-2.601-.336-4.988 2.234-7.414 3.949-2.098 1.48-4.285 2.535-6.203 5.578-.45.71-1.223.105-1.356.105-2.726 2.829-5.074 4.442-7.613 5.036-.738 2.25-1.96 1.941-3.004 2.765a739.908 739.908 0 0 1-8.84 6.88c-1.199.913-2.402 2.667-3.578 4.167-1.039 1.32-2.086 3.2-3.316 2.79-.652-.216-1.055.85-1.442 1.405-3.785 5.399-8.043 7.93-11.878 12.942-1.293-.797-2.059 1.93-3.063 3.027-.937 1.024-1.887 1.996-2.816 3.098-2.043 2.426-4.215 4.168-6.34 6.14-.274.254-.586-.144-.871.508-1.582 3.606-3.707 4.446-5.567 6.543-1.793 2.012-3.675 3.582-5.453 5.809-.64.804-1.379 1.101-2.05 1.617l-.38-.965c-.105.125-.304.254-.308.39-.016 1.93-.469 2.79-1.14 3.005-1.282.406-2.278 2.507-3.438 3.652-1.086 1.074-2.18 2.031-3.242 3.383-1.95 2.484-4.043 4.246-6.094 6.21-.27.259-.57.09-.836.72-1.133 2.722-2.55 3.656-4.055 4.195-.941.336-1.543 3.383-2.687 2.367-.934 3.242-2.489 3.152-3.77 4.516-1.21 1.293-2.465 2.328-3.703 3.441-1.309 1.172-2.621 2.246-3.906 3.684-1.73 1.941-3.653 2.789-5.5 4.015-.36.239-.695.254-1.07.75-1.356 1.801-1.383 1.668-3.067 1.602l-1.023-6.707c.375-.645.957-.778 1.308-2.242-1.453-1.16-1.633-5.98-3.11-6.63-.452-2.378-.073-3.96.575-4.788 1.91-2.45 3.738-5.235 5.563-8.075.71-1.101 1.644-1.378 2.406-2.648 1.723-2.855 3.719-4.41 5.45-7.332.69-1.172 1.476-2.316 2.417-2.625.875-.29 1.508-2.371 2.277-3.422 1.41-1.918 3.02-2.93 4.391-4.996 2.66-4.016 5.668-6.027 8.36-9.809.906-1.273 1.87-2.164 2.867-2.265l.199-1.934c.136-.133.27-.304.41-.383.445-.242.887.25 1.355-.43 1.399-2.027 2.832-3.886 4.371-5.16.563-.464 1.024-1.19 1.141-2.792l.606 1.378c1.113-1.644 2.05-4.77 3.546-3.777.11-.2.204-.285.223-.433.074-.528.121-1.083.176-1.625 2.242-1.23 4.45-2.68 6.3-6.399 2.329-.121 4.028-4.418 6.173-5.738 1.48-.422 3.011-.477 4.148-3.649 1.29-.086 2.043-3.746 3.145-3.75 1.261-.004 2.148-1.722 3.14-2.754 3.66-3.796 7.547-5.972 11.13-10.226.624-.742 1.222 0 1.827-.738l.172-2.133c1.34.945 2.52-1.844 3.902-1.203l1.008-2.43.387.988c1.465-2.347 3.223-3.043 4.715-5.441.515-.836 1.347-.418 2.05-.574l.852-2.176h1.492l.7-2.727c2.148 1.274 3.546-2.683 5.332-3.433l.625 1.289 1.183-3.848c2.184.996 3.867-1.469 5.64-2.875 1.15-.914 2.247-2.351 3.477-1.672l1.028-2.465.367.934c.492-.645 1.078-.875 1.535-2.262h1.945c.254-1.101-.34-1.14-.222-1.933.715-1.336 1.722.765 2.386-1.266.75 1.113 1.38.602 2.192-.105.652-.57 1.558-.532 2.11-1.559.706-1.324 1.663-.55 2.226-2.543l.754 1.356c.586-1.915 1.937-.485 2.214-3.672l.586 1.304c.727-1.691 1.704-2.03 2.586-2.898 2.043-2.016 4.121-3.82 6.211-5.516.203-.164.387-.554.563-.886 1.16-2.137 2.562-2.7 3.86-3.973 1.292-1.277 2.652-2.363 3.847-3.95.824-1.09 1.836.298 2.543-2.19.387-1.38 1.441-1.516 2.191-2.266.813-.817 1.766-1.274 2.383-2.672.547-1.23 1.156-1.031 1.68-1.434 1.484-1.133 2.87-2.832 4.258-4.433 1.492-1.723 3.015-2.836 4.578-3.957 1.742-1.247 3.32-3.903 5.047-5.325 2.316-1.898 4.558-4.062 6.628-7.336 2.5-.265 4.473-4.722 6.91-5.601 1.465-.528 2.583-3.387 4.036-4.32 1.344-.86 2.765-1.57 3.777-4.524.188-.55.762-.125 1.078-.543.332-.445.57-1.363.86-2.101l.332.937c.414.438.492-1.27.925-.973.27.184.633.336.82-.422l.15-1.832h1.48c1.078-3.882 3.062-3.183 4.492-5.91 1.273-2.437 3.133-2.879 4.726-4.195a3.448 3.448 0 0 0 .036-1.566l-.176-.5c-.844 2.87-2.285-.27-3.23 2.066-.212.531-.735.297-1.114.328-1.063.094-2.078.125-3.14 1.082-1.348 1.211-2.903.809-4.266 1.59-1.938 1.11-3.836.629-5.77 1.004l-.972 2.328c-.133-.332-.301-.914-.344-.855-1.524 1.949-3.332 1.156-4.836 3.265-2.172-.758-4.203 1.207-6.219 2.602-2.164 1.496-4.504.054-6.582 3.23-.836 1.281-2.137-.547-3.07 1.457-2.219-.215-4.25 2.496-6.477 2.551-1.137.023-2.285 1.344-3.394 2.309-1.496 1.289-3.086 1.105-4.606 2.218-.84.618-1.715 1.18-2.535 1.957-.371.352-.707.66-1.082.606-1.691-.258-3.238 1.219-4.824 2.39-1.348.997-2.738 1.59-4.102 2.465-1.785 1.149-3.558 2.383-5.332 3.633-.207.145-.375.633-.695 1.203-2.117-1.172-4.113 1.762-6.211 3.02-.633.383-1.395-.242-1.945 1.066-.79 1.875-2.043-.558-2.766 1.926-.926-.219-1.703 1.223-2.64 1.41-1.36.27-2.72 1.656-4.02 2.836-.664.606-1.399-.238-1.953 1.074-.785 1.868-1.875.075-2.824 1.692-.606 1.023-1.684 1.281-2.575 1.652-1.793.75-3.582 2.164-5.312 3.656-1.309 1.13-2.742 1.348-3.969 3.282-.312.496-.984.578-1.129-1.133-.441.441-.273 1.406-.52 2.453-1.53-1.043-2.777 2.574-4.324 2.39-.402-1-.152-2.066-.242-3.054.531-1.098 1.285-.383 1.867-1.688.563-1.261 1.024 1.426 1.664 1.125.98-4.355 2.739-4.304 4.36-5.007.281-.711.562-1.422.84-2.133.054.07.113.21.168.203 2.047-.258 2.855-.918 4.859-3.93h3.34l.95-2.687c.944-.051 1.679-.715 2.245-1.125.781-.563 1.735-.344 2.32-1.5.696-1.375 1.473-.075 2.168-1.407.48-.921 1.25-3.379 2.008-.726.633-1.2 1.473-1.512 1.86-3.57 1.453.605 2.812.015 4.058-1.922l-.101-1.274c-.743-.422-1.39-.387-2.133.774-.36.558-.77 1.808-1.422 1.425-1.078-.62-2 1.137-2.992 1.813-.703.476-1.438 1.906-2.063 1.613-1.933-.906-3.379 3.758-5.277 2.563-.992 2.902-2.356 2.05-3.606 2.597-.39.172-1.468.207-1.351 3.426h-2.883c-.937.887-1.738 2.84-2.898 2.461-.825-.266-1.504 2.047-2.407 1.16-3.011 2.957-6.128 5.055-9.21 7.442-2.036 1.574-4.016 3.578-6.114 4.675-1.14.598-2.136 2.27-3.351 2.77-1.332.547-2.735 1.586-3.875 3.7-.735 1.366-1.516.214-2.274.886-.773 2.355-2.015 1.914-3.039 2.867-3.504 3.262-7.133 5.559-10.652 8.746-1.918 1.73-3.844 3.645-5.813 5.055-1.984 1.414-3.965 2.8-5.738 5.496-.598.91-1.328.152-1.89 1.687-.262.711-1.098.36-1.329-2.023.106-1.734 1.063-2.152 1.594-2.516 2.145-1.46 3.871-5.433 6.098-6.242 3.96-5.812 8.453-8.199 12.613-12.734 1.539-1.676 3.094-3.469 4.691-4.617 2.477-1.786 4.715-5.086 7.196-6.743 1.562-1.043 3.007-2.918 4.527-4.257.703-.621 1.477.18 2.164-1.36.484-1.082 1.242-2.039 2.082-1.68.817.348 1.008-3.195 1.973-2.359 1.351-2.094 2.984-1.957 4.386-3.625 1.126-1.336 2.266-3.078 3.454-3.375 1.379-.347 2.566-1.86 3.847-2.703 1.2-.793 2.344-2.133 3.54-2.984a329.242 329.242 0 0 0 7.19-5.254c.864-.656 1.739-.914 2.5-2.453 1.923-.16 2.305-.864 4.634-3.246 1.195-1.227 2.535-2.457 3.796-2.707 1.758-.344 3.297-2.34 4.965-3.254.977-.536 2.2.695 3.004-1.778 1.801.657 3.281-2.324 5.012-2.793 1.582-.43 3.09-2.492 4.676-3.066.707-.262 1.316-.945 1.882-1.621.43-.508.81-1.207 1.266-.934 1.27.77 2.43-.738 3.578-1.426 1.051-.628 2.207-.722 3.114-2.378l.527 1.226c.887-1.457 2.043-1.351 2.898-3.484a9.007 9.007 0 0 0 3.489-.996c1.168-.614 2.34-1.036 3.445-2.243.066-.074.121-.386.172-.367 2.101.778 4.031-1.152 6.004-2.422 1.289-.828 2.648-.859 3.898-2.265.328-.371.766-.121 1.156-.16.828-.086 1.61-.059 2.438-1.047.687-.82 1.578-.407 2.406-1.2.871-.835 1.8-2.07 2.863-1.433.579.348 1.18-.766 1.704-.961 1.93-.715 3.843-1.59 5.757-2.547.805-.402 1.621.055 2.43-1.144.602-.887 1.402-.13 2.191-1.094.872-1.07 2.114.27 3.075-1.434 1.722.918 3.367-.781 5-1.433 2.34-.93 4.8-.621 7.015-3.336.13-.157.313-.114.465-.051 1.793.762 3.457-1.984 5.25-1.223 1.012.43 1.82-1.765 2.89-1.285.919.41 1.966.692 2.821-.027 2.766-2.328 5.578-.278 8.492-1.344l1.102 4.043c-.168 1.508.46 3.684.61 6.36-.77 1.722-1.348 4.046-2.4 4.995.348 1.008.837 1.762.985 3.028-.672 2.472-2.316 1.625-2.469 5.418-1.015 1.656-2.316 2.234-3.238 4.597-.305.774-.726 1.446-1.137 1.692-2.05 1.219-3.632 4.863-5.523 6.832-3.984 4.137-7.797 9.308-11.89 12.82-.891.766-1.645 2.531-2.532 3.352-1.172 1.074-2.277 2.89-3.566 2.953-.121-1.106.18-2.184-.32-2.653-.317.836-.278 1.602.32 2.653Zm-11.684 5.887c.73-.461 1.285.476 1.867-1.532-.676.473-1.152-.515-1.597 1.356-.227-.106-.371.16-.418.71-.008.094.101.38.14.356.215-.125.32-.488.008-.89Zm-123.41 126.28c.469-.07 1.047.962 1.398-.343.059-.93.051-1.664-.484-1.851-.422-.094-.57 1.242-.793 3.027-.746-.817-1.367-.953-2.14.183.788.563 1.41.766 2.019-1.015Zm-30.992 31.634 1.37.004c.196-.711.598-1.043.614-2.094-.816-1.102-1.32.066-1.793 2.094-.465.457-1.2-1.122-1.422 1.203-.156 0-.316-.063-.465.011-2.578 1.274-4.867 4.504-7.257 7.036-.176.187-.407.652-.332 1.402h-.77c-.238 1.031-.25 1.695.027 2.344.707.28 1.02-.828 1.215-2.344.613.613.926-1.117 1.442-1.195.597-.094 1.132-.016 1.703-1.133 1.172-2.285 2.61-3.192 4.07-3.719.242-.086.422-.441.367-1.195.735.195 1.235-.508 1.23-2.414Zm8.246-8.446c.82-.035 1.676.38 2.37-1.207h.77c.239-1.031.247-1.695-.011-2.308-.367-.149-.742-.348-.758 1.101-.879.246-1.992-1.027-2.371 2.414-.465.457-1.2-1.12-1.242.864l-2.594 2.175c.445.72.566 1.934 1.039 1.801a124.84 124.84 0 0 0 1.375-3.633c.469-.46 1.2 1.118 1.422-1.207Zm8.058-8.449h-2.171c-.422 2.215-1.536 2.3-2.09 4.219.148.555.394.824.601.582 1.121-1.328 2.594-.453 3.446-3.559.078-.281.453-.035.687-.035.559-.035.613-1.219.406-1.855-.316-.98-.754-1.059-.879.648Zm84.825-148.441c0-.203.02-.426-.008-.598s-.145-.43-.156-.414c-.461.879-1.122.883-1.543 2.398h-1.98c-.134.84-.56.938-.458 2.215 1.434.239 2.746-1.531 4.14-1.816.009 0 .005-.38.005-.578.761-.196 1.53.316 2.293-.383 1.59-1.465 3.062-4.121 4.894-3.238.742-2.38 1.883-.543 2.781-1.746 1.118-1.489 2.356-2.297 3.649-1.82.027-2.009.597-2.442 1.297-3.704-2.164.059-3.82 3.254-5.684 2.633-.8.437-1.312 2.726-2.238 2.203-1.184-.668-2.254.863-3.317 1.48-1.066.618-2.402.668-3.218 3.34-.059.196-.301.028-.457.028Zm51.18-25.676c.91 1.016 1.269-1.688 2.093-.984.637.546 1.418-.114 2.11.168.82.332 1.406-1.16 2.152-1.512 1.008-.473 2.066-.59 3.05-1.438.547-.468 1.032-1.656 1.579-1.832.55-.176 1.082-1.789 1.683-.39.461-2.082 1.008 1.66 1.477-.137.133-.617-.031-1.57.344-1.926.449 2.043.96.926 1.464.133.633 2.574 1.16-.414 1.766-.25.781.21 1.77.805 2.316-.121.918-1.543 1.801-.887 2.684-.973.918-.086 1.649-1.828 2.645-1.347 1.203.578 2.406-.145 3.582-1.094.562-.453.48-1.188.332-2.133-1.957-1.605-3.786 1.09-5.684.89-.894 2.297-2.074.614-3.074 1.43-1.5 1.219-3.059 2.27-4.606 2.067-1.875-.246-3.605 2.191-5.476 1.355-.125-.055-.27.281-.406.363-1.153.684-2.317 2.012-3.45 1.856-1.351-.188-2.566 1.012-3.804 1.61-.801.386-1.594.898-2.422 1.003-.121.016-.238.399-.352.606Zm-6.212.45c-1.582-.481-2.906.151-4.168 1.612-.199.227-.332.711-.601.7-2.13-.098-4.164 1.457-6.242 2.207-1.118.398-2.356.468-3.305 1.601-1.137 1.356-2.367.582-3.445 2.137-.703 1.012-1.524 1.383-2.391 1.41-.625.02-1.457.543-1.684 3.078 1.29 1.281 2.133-1.316 3.258-1.648.356 1.039.875 1.312 1.512.406 1.676-2.387 3.488-3.383 5.398-3.16 1.098.125 2.13-.168 2.891-2.277.766-.645 1.516.359 2.293-.833.617-.945 1.488-1.246 2.227-1.117.726.13 1.355-1.351 2.054-.593.762.832 1.395-1.887 2.203-.29v-3.234ZM52.83 201.632c1.882 1.015 3.23-3.149 4.983-3.559.88-.207 1.665-1.64 2.247-3.472.558-.403 1.226.601 1.691-.778l-.125-1.87c-.387.71-.742.085-1.25.515-2.145 1.816-4.055 5.047-6.254 6.582-.434.304-1.152-.727-1.387 1.191ZM181.733 30.207c1.586 1.105 3.04-1.016 4.59-1.348v-2.148c-1.629.469-3.304-1.082-4.707 2.102Zm40.707 64.36c.66-.762 1.856.898 2.336-2.68-.683.324-1.265.597-1.843.875-.168-.367-.286-.98-.547-.809-.453-.113-.543 1.45-1.012 1.246a1.072 1.072 0 0 0-.934.008c-.273.133-.765-.746-.785.887.723.824 1.547-.371 2.2.695l.144 1.79c.57.007.316-1.013.441-2.013Zm-.492-81.84c-.855-.54-1.476-.426-2.25.609-.66.89-1.652.184-2.465.184v3.652c1.477-2.418 3.262-1.836 4.715-4.445ZM154.73 42.375c-.89 2.438-2.25.656-3.44 1.668.144 1.227-.302 2.61.35 3.289.657.137.82-1.543 1.352-2.39.617-.372 1.41.46 2.117-.512-.054-.664.086-1.317-.379-2.055Zm3.637-.887h-2.754v1.992h2.754Zm21.356 39.399c.027-1.192.082-2.016-.356-2.196-.55-.222-.793 1.45-1.422 1.336-.496-.09-1.023 1-1.707 1.754 1.418 1.578 2.383-1.148 3.485-.894ZM20.18 234.215c-.7.808-1.512 1.344-2.028 3.328 1.075 1.348 1.637-.848 2.297-1.203.113-1.13.008-1.598-.27-2.125Zm51.812-51.195c-1.32-1.325-1.898.52-2.73 1.261 1.043 1.63 1.629-.511 2.73-1.261Zm136.16-86.848c.426 1.023.805 2.082 1.36 3.36.043-1.856.273-3.016-.16-3.958-.356.223-.754-.398-1.2.598Zm-10.449-42.777c-.8-.2-1.07.812-1.348 1.925.477.625.895.672 1.348-.02Zm34.535 38.902c-.418-.012-.883-.77-1.36.336.548.722.97.781 1.36-.336Zm-33.097-40.762c.496.953.972.953 1.468 0-.496-.953-.972-.953-1.468 0ZM62.21 191.531c.32.875.637.875.957 0-.32-.879-.637-.879-.957 0ZM183.42 68.184c-.23.304-.632-1.192-.776.457.285.582.546.625.777-.457Zm11.849-12.067c-.23.305-.633-1.195-.778.453.285.582.547.625.778-.453Zm.816.856a1.15 1.15 0 0 0 0 1.195 1.17 1.17 0 0 0 0-1.195Zm0 0" style="stroke:none;fill-rule:nonzero;fill:#fb0994;fill-opacity:1"/></g><path d="M86.18 96.719c-.344-.543-.41-1.328-1.004-.852-1.27 2.98-3.297 2.836-5.067 4.555-1.433 1.394-2.964 1.976-4.39 3.496-.442.465-1.063.484-1.707-.434 1.91-4.007 4.508-3.226 6.633-6.652h2.207l.628-2.039c.875-1.04 1.903.793 2.27-1.594.633-.105.719 1.578.75 1.551 1.05-.824.75-2.941 1.7-3.762 1.75-.422 3.69-2.746 5.702-4.414 1.375-1.14 2.688-2.398 4.145-1.683.289.394.137 1.078.207 1.77-1.617 1.226-3.2 3.026-4.84 3.51-1.727.505-3.078 4.454-5.008 2.684-.281 3.356-1.636 1.91-2.226 3.864Zm-14.25 7.316.832 2.13c-1.219-.013-2.211 1.12-3.5 1.917.984-2.926 1.453-3.574 2.668-4.047Zm-6.168 4.828h.468c.286.535.313 1.219.184 1.942-.16.73-.418.386-.637.476-.359-.8-.351-1.605-.015-2.418ZM187.32 28.879v-2.656c.118-.203.23-.59.356-.606.828-.105 1.62-.617 2.418-1.004 1.242-.597 2.457-1.797 3.808-1.61 1.133.157 2.297-1.167 3.446-1.855.14-.082.285-.418.41-.363 1.867.836 3.601-1.601 5.476-1.355 1.547.203 3.106-.848 4.602-2.067 1.004-.816 2.184.867 3.078-1.43 1.899.2 3.727-2.495 5.684-.89.148.945.23 1.68-.332 2.133-1.176.949-2.38 1.672-3.582 1.094-.996-.48-1.727 1.261-2.645 1.347-.883.086-1.766-.57-2.684.973-.546.926-1.539.332-2.316.12-.61-.163-1.133 2.825-1.77.25-.503.794-1.011 1.911-1.464-.132-.375.356-.207 1.309-.34 1.926-.469 1.793-1.016-1.945-1.477.137-.601-1.399-1.133.214-1.683.39-.547.176-1.032 1.364-1.578 1.832-.985.848-2.043.965-3.055 1.438-.742.351-1.328 1.844-2.152 1.512-.688-.282-1.47.378-2.106-.168-.824-.704-1.184 2-2.094.984Zm-6.21.449v3.235c-.805-1.598-1.442 1.12-2.204.292-.695-.761-1.324.72-2.054.594-.739-.129-1.61.168-2.227 1.117-.773 1.188-1.527.184-2.293.829-.762 2.109-1.793 2.402-2.89 2.277-1.91-.223-3.723.777-5.399 3.16-.637.906-1.156.633-1.512-.402-1.125.328-1.965 2.925-3.254 1.644.227-2.531 1.055-3.058 1.68-3.078.867-.023 1.691-.398 2.39-1.41 1.079-1.555 2.313-.781 3.446-2.137.95-1.133 2.187-1.199 3.305-1.601 2.078-.746 4.113-2.305 6.242-2.207.27.011.402-.47.601-.7 1.262-1.46 2.586-2.093 4.168-1.613Zm-44.97 25.227c.157 0 .4.168.458-.028.816-2.672 2.152-2.722 3.218-3.34 1.063-.617 2.133-2.148 3.317-1.48.926.523 1.437-1.766 2.238-2.203 1.863.621 3.52-2.574 5.684-2.633-.7 1.262-1.27 1.695-1.297 3.703-1.293-.476-2.531.332-3.649 1.82-.898 1.204-2.039-.632-2.78 1.747-1.833-.883-3.306 1.777-4.895 3.238-.762.7-1.532.187-2.293.383ZM25.727 229.547c-.075-.75.156-1.219.332-1.402 2.39-2.532 4.68-5.762 7.257-7.036.149-.074.309-.011.465-.011v1.207c.055.754-.125 1.11-.367 1.195-1.46.527-2.898 1.434-4.07 3.719-.57 1.117-1.106 1.039-1.7 1.133-.519.078-.831 1.808-1.445 1.195Zm156.007-199.34-.117-1.395c1.403-3.183 3.078-1.632 4.707-2.101v2.148c-1.55.328-3.004 2.453-4.59 1.348ZM51.79 204.203c-.235 0-.61-.246-.688.035-.856 3.106-2.325 2.23-3.446 3.559-.207.242-.453-.027-.605-.582.558-1.918 1.672-2.004 2.094-4.219h2.167c.333-.031.489.371.477 1.207ZM222.441 94.566c-.125 1 .13 2.02-.441 2.012l-.145-1.789c-.652-1.066-1.476.129-2.199-.695.02-1.633.512-.754.785-.887.309-.144.625-.148.934-.008.469.203.559-1.36 1.012-1.246.261-.172.379.442.547.809.578-.278 1.16-.551 1.843-.875-.48 3.578-1.675 1.918-2.336 2.68Zm-.491-81.839c-1.454 2.605-3.24 2.027-4.716 4.445V13.52c.813 0 1.805.707 2.465-.184.774-1.035 1.395-1.149 2.25-.61Zm0 0" style="stroke:none;fill-rule:nonzero;fill:#fb0994;fill-opacity:1"/><path d="M136.14 54.555v1.207c0 .199.005.578-.003.578-1.395.285-2.711 2.055-4.14 1.816-.102-1.277.323-1.375.456-2.215h1.98c.422-1.515 1.083-1.52 1.544-2.398.011-.016.128.242.156.414.027.172.008.395.008.598Zm18.59-12.18c.465.738.325 1.39.38 2.05-.708.977-1.5.145-2.118.516-.531.844-.695 2.528-1.351 2.387-.653-.68-.207-2.062-.352-3.285 1.191-1.012 2.55.77 3.441-1.668Zm3.637-.887v1.992h-2.754v-1.992ZM20.18 234.215c.277.527.383.996.27 2.125-.66.355-1.223 2.55-2.298 1.203.516-1.984 1.328-2.52 2.028-3.328Zm21.836-21.906-1.555 3.976c-.473.133-.594-1.082-1.04-1.8Zm3.613-2.071c-.695 1.586-1.55 1.172-2.371 1.207.379-3.437 1.492-2.168 2.37-2.414Zm26.363-27.218c-1.101.75-1.687 2.89-2.73 1.261.832-.742 1.41-2.586 2.73-1.261Zm136.16-86.848c.446-.996.844-.375 1.2-.598.433.942.203 2.102.16 3.957-.555-1.277-.934-2.336-1.36-3.36ZM35.012 219.89c.664-2.023 1.168-3.19 1.984-2.09-.016 1.052-.418 1.38-.613 2.09Zm30.992-31.632c.344-.953.492-2.29.914-2.196.535.188.543.922.484 1.852-.351 1.305-.93.27-1.398.344Zm0 0" style="stroke:none;fill-rule:nonzero;fill:#fb0994;fill-opacity:1"/><path d="M33.781 222.305v-1.207c.223-2.325.957-.746 1.422-1.207-.187 1.906-.687 2.609-1.422 2.414Zm163.922-168.91V55.3c-.453.691-.871.644-1.348.02.278-1.114.547-2.126 1.348-1.926ZM25.727 229.547h.472c-.195 1.516-.508 2.625-1.215 2.344-.277-.649-.265-1.313-.027-2.344Zm40.398-40.457c-.73.95-1.352.746-2.14.183.773-1.136 1.394-1 2.14-.183Zm166.113-96.793c-.39 1.117-.812 1.058-1.36.336.477-1.106.942-.348 1.36-.336ZM199.14 51.535c.497-.953.973-.953 1.47 0-.497.953-.973.953-1.47 0Zm-9.726 10.442c.715-2.047 1.191-1.055 1.867-1.532-.586 2.008-1.136 1.075-1.867 1.532ZM43.258 211.445c-.223 2.325-.953.746-1.422 1.207.223-2.328.957-.75 1.422-1.207ZM201.137 56.418c-.637-1.379-.676-2.145-.36-2.977.5.465.2 1.543.36 2.977Zm-17.715 11.766c-.23 1.082-.492 1.039-.777.457.144-1.649.546-.153.777-.457Zm11.848-12.067c-.23 1.078-.493 1.035-.778.453.145-1.648.547-.148.778-.453Zm0 0" style="stroke:none;fill-rule:nonzero;fill:#fb0994;fill-opacity:1"/><path d="M189.684 61.8c.043.579-.063.946-.278 1.071-.039.02-.148-.262-.14-.355.047-.555.191-.82.418-.715Zm6.402-4.827c.219.398.219.8 0 1.195a1.153 1.153 0 0 1 0-1.195Zm0 0" style="stroke:none;fill-rule:nonzero;fill:#fb0994;fill-opacity:1"/><g clip-path="url(#b)"><path d="M25.188 112.336h-.891c0-6.738-.438-11.262-1.313-13.574-.875-2.309-2.515-3.461-4.922-3.461h-1.335v59.054h3.117v2.274H6.934v-2.274h3.117V95.301H8.715c-2.375 0-4 1.152-4.875 3.46-.875 2.313-1.313 6.837-1.313 13.575h-.89V93.027h23.55Zm28.804-19.309v2.274h-2.226v59.054h2.226v2.274H42.863v-2.274h2.223v-30.437h-8.77v30.437h2.227v2.274H27.414v-2.274h2.227V95.301h-2.227v-2.274h11.129v2.274h-2.227v26.347h8.77V95.301h-2.223v-2.274Zm11.574 2.274v29.3c2.97 0 4.957-1.097 5.965-3.292 1.012-2.2 1.516-5.871 1.516-11.02 0-5.148-.52-8.934-1.559-11.355-1.039-2.422-3.011-3.633-5.922-3.633Zm17.496 60.191v2.27h-1.957c-3.71 0-6.293-2.043-7.75-6.133-1.156-3.18-1.94-7.383-2.359-12.606a180.666 180.666 0 0 0-.578-6.02c-.473-4.085-1.438-6.132-2.895-6.132h-1.957v27.484h2.227v2.274H56.664v-2.274h2.223V95.301h-2.223v-2.274h11.707c7.567 0 11.352 5.641 11.352 16.922 0 4.469-.637 8.102-1.914 10.903-1.278 2.8-2.907 4.203-4.899 4.203v.797c2.969 0 5.031 4.996 6.192 14.988.593 5.3 1.195 9.066 1.8 11.3.61 2.235 1.328 3.352 2.16 3.352Zm24.708-60.191v33.617c0 19.61-3.235 29.414-9.704 29.414-3.593 0-6.398-2.348-8.414-7.043-2.02-4.695-3.027-11.773-3.027-21.238V95.3h-2.227v-2.274h11.575V95.3h-2.227v36c0 15.824 2.078 23.734 6.234 23.734 1.692 0 3.227-2.137 4.606-6.414 1.383-4.277 2.07-10.09 2.07-17.434V95.302h-3.515v-2.274h6.855v2.274Zm26.937 0v33.617c0 19.61-3.238 29.414-9.707 29.414-3.59 0-6.395-2.348-8.414-7.043-2.02-4.695-3.027-11.773-3.027-21.238V95.3h-2.227v-2.274h11.574V95.3h-2.226v36c0 15.824 2.078 23.734 6.234 23.734 1.691 0 3.227-2.137 4.61-6.414 1.378-4.277 2.07-10.09 2.07-17.434V95.302h-3.52v-2.274h6.856v2.274Zm34.055 39.746h.89v21.582H148.73v-2.274h2.223V95.301h-2.223v-2.274h11.575v2.274h-2.672v59.054h4.453c1.008 0 1.848-.187 2.516-.566.668-.379 1.355-1.176 2.07-2.387 1.394-2.347 2.09-7.797 2.09-16.355Zm20.968-10.332c0-9.692-.511-17.246-1.535-22.656-1.023-5.414-2.433-8.121-4.23-8.121-1.793 0-3.211 2.726-4.25 8.175-1.04 5.453-1.559 13.063-1.559 22.828 0 9.766.496 17.301 1.492 22.602.993 5.297 2.426 7.95 4.297 7.95 3.856 0 5.785-10.263 5.785-30.778Zm7.168.625c0 10.41-1.203 18.414-3.605 24.02-2.402 5.6-5.535 8.402-9.395 8.402-3.855 0-6.972-2.782-9.347-8.348-2.375-5.562-3.563-13.55-3.563-23.96 0-10.411 1.188-18.645 3.563-24.704 2.375-6.055 5.527-9.086 9.46-9.086 3.93 0 7.063 3.012 9.395 9.031 2.328 6.02 3.492 14.235 3.492 24.645Zm20.57-32.313h7.747v2.274h-3.028l-9.484 61.328h-1.156L200.37 95.3h-2.137v-2.274h12.598V95.3h-2.18l6.5 38.043 5.875-38.043h-3.558Zm18.876 61.328h4.453c4.45 0 6.676-6.433 6.676-19.308h.89v21.582h-20.922v-2.274h2.223V95.301h-2.223v-2.274h20.477v19.309h-.89c0-6.738-.528-11.262-1.579-13.574-1.054-2.309-2.754-3.461-5.097-3.461h-4.008v27.254h1.781c2.137 0 3.488-.68 4.05-2.043.563-1.364.845-4.09.845-8.176h.89v22.71h-.89c0-4.237-.282-7-.844-8.288-.563-1.285-1.914-1.93-4.051-1.93h-1.781Zm0 0" style="stroke:none;fill-rule:nonzero;fill:#1e1e1e;fill-opacity:1"/></g><g clip-path="url(#c)"><path d="m12.207 174.77-4.648 36.84H5.352L0 167.745h2.05l4.419 36.84 4.62-36.84h2.235l4.621 36.84 4.414-36.84h2.055l-5.352 43.863h-2.207Zm14.129-9.54h1.945v18.418c.469-1.59 1.04-2.937 1.715-4.043.676-1.101 1.445-1.656 2.313-1.656.867 0 1.609.313 2.234.93.621.617 1.168 1.547 1.637 2.781 1.07 2.695 1.61 6.25 1.61 10.668v19.281h-1.95v-19.148c0-3.047-.336-5.477-1.012-7.29-.676-1.808-1.55-2.714-2.625-2.714-1.09 0-2.016.926-2.777 2.781-.762 1.899-1.145 4.328-1.145 7.29v19.081h-1.945Zm20.492 42.403c1.746 0 3.004-1.856 3.766-5.567h2.129c-.45 3.004-1.164 5.434-2.145 7.29-.976 1.855-2.238 2.78-3.777 2.78-1.957 0-3.551-1.656-4.778-4.968-1.195-3.223-1.793-7.266-1.793-12.125 0-4.902.57-8.941 1.715-12.125 1.211-3.313 2.785-4.969 4.727-4.969 1.937 0 3.512 1.656 4.726 4.969 1.141 3.184 1.715 7.223 1.715 12.125v1.988H42.23c.137 3.047.614 5.567 1.426 7.555.832 2.031 1.89 3.047 3.172 3.047Zm-.156-25.176c-1.195 0-2.2.95-3.016 2.848-.761 1.812-1.226 4.175-1.402 7.09h8.832c-.172-2.915-.64-5.278-1.402-7.09-.813-1.899-1.82-2.848-3.012-2.848Zm15.555-4.508h.128v4.969h-.23c-1.402 0-2.547 1.437-3.43 4.309-.832 2.738-1.246 6.007-1.246 9.804v14.578H55.5V178.48h1.95v8.149c.413-3.445 1.316-5.984 2.698-7.617.575-.707 1.266-1.063 2.079-1.063Zm7.687 29.684c1.75 0 3.004-1.856 3.766-5.567h2.129c-.45 3.004-1.164 5.434-2.141 7.29-.98 1.855-2.238 2.78-3.777 2.78-1.957 0-3.551-1.656-4.782-4.968-1.195-3.223-1.793-7.266-1.793-12.125 0-4.902.575-8.941 1.715-12.125 1.215-3.313 2.79-4.969 4.727-4.969 1.941 0 3.515 1.656 4.726 4.969 1.145 3.184 1.715 7.223 1.715 12.125v1.988H65.316c.141 3.047.618 5.567 1.43 7.555.832 2.031 1.887 3.047 3.168 3.047Zm-.156-25.176c-1.195 0-2.2.95-3.012 2.848-.762 1.812-1.23 4.175-1.402 7.09h8.832c-.176-2.915-.64-5.278-1.403-7.09-.816-1.899-1.82-2.848-3.015-2.848Zm27.922-3.113c0 4.812-.774 8.101-2.313 9.87 1.418 1.192 2.39 3.38 2.91 6.56.188 1.238.285 2.671.285 4.304 0 5.3-1.101 8.836-3.3 10.602-.727.617-1.582.93-2.57.93h-8.157v-43.864h7.715c1.852 0 3.266 1.281 4.234 3.844.797 2.031 1.196 4.617 1.196 7.754Zm-11.196-6.89v14.905h5.766c1.594 0 2.656-1.39 3.195-4.175.192-.97.285-2.02.285-3.145a21.66 21.66 0 0 0-.183-2.984c-.121-.86-.309-1.621-.57-2.285-.57-1.543-1.41-2.317-2.52-2.317Zm0 34.448h6.414c1.196 0 2.114-.629 2.754-1.886.641-1.258.961-3.036.961-5.332 0-2.211-.312-4.02-.933-5.434-.696-1.59-1.692-2.387-2.989-2.387h-6.207Zm20.621.73c1.75 0 3.004-1.855 3.766-5.566H113c-.45 3.004-1.164 5.434-2.14 7.29-.981 1.855-2.239 2.78-3.782 2.78-1.953 0-3.547-1.656-4.777-4.968-1.196-3.223-1.793-7.266-1.793-12.125 0-4.902.574-8.941 1.715-12.125 1.21-3.313 2.789-4.969 4.726-4.969 1.942 0 3.516 1.656 4.727 4.969 1.144 3.184 1.715 7.223 1.715 12.125v1.988h-10.883c.14 3.047.617 5.567 1.43 7.555.832 2.031 1.886 3.047 3.167 3.047Zm-.156-25.175c-1.195 0-2.199.95-3.011 2.848-.762 1.812-1.231 4.175-1.403 7.09h8.828c-.172-2.915-.64-5.278-1.402-7.09-.813-1.899-1.816-2.848-3.012-2.848Zm18.961 29.152v-5.3c-1.039 3.886-2.59 5.828-4.648 5.828-1.871 0-3.395-1.657-4.575-4.969-1.14-3.27-1.71-7.309-1.71-12.125 0-4.813.57-8.856 1.71-12.125 1.18-3.313 2.747-4.969 4.704-4.969 1.957 0 3.46 1.969 4.52 5.899v-5.368h1.944v33.13Zm-4.39-3.976c1.402 0 2.511-1.238 3.324-3.711.781-2.34 1.168-5.3 1.168-8.879 0-3.578-.387-6.535-1.168-8.875-.813-2.477-1.922-3.711-3.324-3.711-1.387 0-2.512 1.234-3.375 3.711-.817 2.34-1.223 5.297-1.223 8.875 0 3.578.406 6.539 1.223 8.879.863 2.473 1.988 3.71 3.375 3.71Zm21.035 3.976h-1.946v-5.168c-.468 1.59-1.039 2.938-1.714 4.04-.676 1.105-1.446 1.656-2.313 1.656-.863 0-1.61-.309-2.23-.926-.625-.621-1.172-1.547-1.637-2.785-1.074-2.692-1.613-6.25-1.613-10.664V178.48h1.949v19.149c0 3.047.34 5.476 1.012 7.285.675 1.813 1.55 2.719 2.625 2.719 1.09 0 2.015-.93 2.777-2.781.762-1.903 1.144-4.332 1.144-7.29V178.48h1.946Zm6.726 0h-1.945v-28.754h-2.649v-4.375h2.649v-11.859h1.945v11.86h2.989v4.374h-2.989Zm16.262-33.129-7.688 46.247h-2.105l2.363-13.582-5.297-32.665h2.157l4.18 27.165 4.257-27.165Zm20.852.864c0 4.812-.77 8.101-2.31 9.87 1.419 1.192 2.388 3.38 2.907 6.56.192 1.238.285 2.671.285 4.304 0 5.3-1.097 8.836-3.297 10.602-.726.617-1.582.93-2.57.93h-8.156v-43.864h7.715c1.851 0 3.261 1.281 4.234 3.844.793 2.031 1.192 4.617 1.192 7.754Zm-11.192-6.89v14.905h5.766c1.594 0 2.656-1.39 3.195-4.175.188-.97.285-2.02.285-3.145a21.66 21.66 0 0 0-.183-2.984 10.284 10.284 0 0 0-.57-2.285c-.571-1.543-1.41-2.317-2.52-2.317Zm0 34.448h6.414c1.196 0 2.113-.629 2.754-1.886.64-1.258.961-3.036.961-5.332 0-2.211-.312-4.02-.937-5.434-.692-1.59-1.688-2.387-2.985-2.387h-6.207Zm20.621.73c1.75 0 3.004-1.855 3.766-5.566h2.129c-.45 3.004-1.164 5.434-2.14 7.29-.981 1.855-2.24 2.78-3.782 2.78-1.957 0-3.547-1.656-4.777-4.968-1.196-3.223-1.793-7.266-1.793-12.125 0-4.902.57-8.941 1.714-12.125 1.211-3.313 2.79-4.969 4.727-4.969 1.937 0 3.516 1.656 4.727 4.969 1.144 3.184 1.714 7.223 1.714 12.125v1.988h-10.882c.14 3.047.613 5.567 1.43 7.555.831 2.031 1.886 3.047 3.167 3.047Zm-.156-25.175c-1.195 0-2.2.95-3.012 2.848-.761 1.812-1.23 4.175-1.402 7.09h8.828c-.172-2.915-.64-5.278-1.402-7.09-.813-1.899-1.817-2.848-3.012-2.848Zm18.96 1.324v-5.3h1.946v32.132c0 4.77-.531 8.403-1.597 10.899-1.063 2.496-2.497 3.742-4.297 3.742-1.801 0-3.207-.883-4.22-2.649-1.015-1.765-1.702-4.109-2.065-7.023h2.156c.554 3.445 1.816 5.168 3.789 5.168 1.508 0 2.597-.883 3.273-2.648.676-1.77 1.016-4.375 1.016-7.82v-4.571c-1.059 3.93-2.61 5.898-4.652 5.898-1.868 0-3.391-1.636-4.57-4.906-1.141-3.18-1.716-7.152-1.716-11.926 0-4.77.575-8.742 1.715-11.922 1.18-3.27 2.75-4.906 4.715-4.906 1.965 0 3.469 1.946 4.508 5.832Zm-4.39 23.32c.711 0 1.34-.32 1.895-.96.554-.641 1.031-1.512 1.43-2.618.777-2.296 1.167-5.21 1.167-8.746 0-3.53-.39-6.445-1.167-8.742-.848-2.387-1.958-3.578-3.325-3.578-1.402 0-2.527 1.191-3.375 3.578-.816 2.34-1.222 5.254-1.222 8.742 0 3.493.406 6.407 1.222 8.746.848 2.387 1.973 3.579 3.375 3.579Zm9.711 4.508V178.48h1.95v33.13Zm-.074-45.187h2.102v6.492h-2.102Zm5.398 12.058h1.95v5.168c.468-1.59 1.039-2.937 1.714-4.043.676-1.101 1.446-1.656 2.313-1.656.863 0 1.61.313 2.23.93.625.617 1.172 1.547 1.637 2.781 1.074 2.695 1.613 6.25 1.613 10.668v19.281h-1.949v-19.148c0-3.047-.34-5.477-1.011-7.29-.676-1.808-1.551-2.714-2.625-2.714-1.09 0-2.016.926-2.778 2.781-.762 1.899-1.144 4.328-1.144 7.29v19.081h-1.95Zm24.313 8.88h-1.977c-.172-3.446-1.257-5.169-3.257-5.169s-3 1.59-3 4.77c0 1.324.21 2.332.636 3.016a5.593 5.593 0 0 0 1.598 1.687c.64.441 1.336.852 2.09 1.227.754.375 1.449.906 2.09 1.59.64.683 1.175 1.624 1.597 2.816.426 1.191.637 2.828.637 4.902 0 3.227-.477 5.688-1.43 7.387-.949 1.703-2.242 2.55-3.867 2.55-1.734 0-3.11-1.1-4.129-3.312-.937-1.941-1.437-4.48-1.508-7.617h2.028c.12 3.047.793 5.102 2.023 6.16.45.356.895.531 1.34.531.441 0 .852-.066 1.23-.199.383-.133.754-.375 1.118-.73.832-.84 1.246-2.274 1.246-4.305 0-1.371-.211-2.418-.637-3.148a5.733 5.733 0 0 0-1.594-1.79c-.64-.46-1.34-.882-2.093-1.257a7.677 7.677 0 0 1-2.09-1.559c-.64-.66-1.172-1.566-1.598-2.715-.422-1.148-.637-2.738-.637-4.77 0-3.003.43-5.335 1.286-6.991.859-1.657 2.128-2.485 3.804-2.485 1.594 0 2.852.973 3.77 2.918.761 1.633 1.203 3.797 1.324 6.492Zm0 0" style="stroke:none;fill-rule:nonzero;fill:#1e1e1e;fill-opacity:1"/></g></svg>
